# xmcd CD database file
#
# Track frame offsets:
#	150
#	16125
#	34571
#	48974
#	65898
#	84198
#	101682
#	120617
#	137427
#	158949
#	176834
#	194424
#	209084
#	226964
#	250100
#
# Disc length: 3554 seconds
#
# Revision: 1
# Processed by: cddbd v1.5.2PL0 Copyright (c) Steve Scherf et al.
# Submitted via: CDex 1.51
#
DISCID=c90de00f
DTITLE=Various Artist - STTW3197
DYEAR=1900
DGENRE=Blues
TTITLE0=Owl City - Fireflies
TTITLE1=Glee Cast - Don't Stop Believing
TTITLE2=Paolo Nutini - 10/10
TTITLE3=Marina and The Diamonds - Hollywood
TTITLE4=JLS - One Shot
TTITLE5=Alicia Keys - Empire State Of Mind (part2)
TTITLE6=Robbie Williams - You Know Me
TTITLE7=Alexandra Burke - Bad Boys
TTITLE8=Take That - Hold Up A Light
TTITLE9=Lady Gaga Ft Beyonce - Telephone
TTITLE10=Joe McElderry - The Climb
TTITLE11=Saturdays The - Ego
TTITLE12=Mika - Rain
TTITLE13=Black Eyed Peas The - I Gotta Feeling
TTITLE14=Peter Andre - Behind Closed Doors
EXTD=
EXTT0=
EXTT1=
EXTT2=
EXTT3=
EXTT4=
EXTT5=
EXTT6=
EXTT7=
EXTT8=
EXTT9=
EXTT10=
EXTT11=
EXTT12=
EXTT13=
EXTT14=
PLAYORDER=
